<!-- icon666.com - MILLIONS vector ICONS FREE -->
<svg id="Layer_1" enable-background="new 0 0 64 64" viewBox="0 0 64 64"
    xmlns="http://www.w3.org/2000/svg">
    <circle cx="32" cy="32" fill="#333" r="32"></circle>
    <g>
        <g>
            <path
                d="m39.2 52c-4.3 0-7.9-3.6-7.9-7.9v-24.2c0-3.6-3-6.6-6.6-6.6s-6.6 3-6.6 6.6v18.3h-1.4v-18.3c0-4.3 3.6-7.9 7.9-7.9s7.9 3.6 7.9 7.9v24.1c0 3.6 3 6.6 6.6 6.6s6.6-3 6.6-6.6v-18.2h1.4v18.3c.1 4.3-3.5 7.9-7.9 7.9z"
                fill="#fff"></path>
        </g>
        <g>
            <path
                d="m46.5 23c-3 0-5.5-2.5-5.5-5.5s2.5-5.5 5.5-5.5 5.5 2.5 5.5 5.5-2.5 5.5-5.5 5.5zm0-9.6c-2.3 0-4.1 1.9-4.1 4.1s1.9 4.1 4.1 4.1c2.3 0 4.1-1.9 4.1-4.1s-1.8-4.1-4.1-4.1z"
                fill="#fff"></path>
        </g>
        <g>
            <path
                d="m17.5 52c-3 0-5.5-2.5-5.5-5.5s2.5-5.5 5.5-5.5 5.5 2.5 5.5 5.5-2.4 5.5-5.5 5.5zm0-9.7c-2.3 0-4.1 1.9-4.1 4.1 0 2.3 1.9 4.1 4.1 4.1s4.1-1.9 4.1-4.1c.1-2.2-1.8-4.1-4.1-4.1z"
                fill="#fff"></path>
        </g>
    </g>
</svg>